<mxfile host="app.diagrams.net" modified="2021-09-26T22:43:46.192Z" agent="5.0 (Macintosh; Intel Mac OS X 10_15_7) AppleWebKit/605.1.15 (KHTML, like Gecko) Version/15.0 Safari/605.1.15" etag="OqAUE3sxij90mf-q7Nx4" version="15.3.1" type="github">
  <diagram id="C8_kxAK0KzZd8ScJWdYP" name="Page-1">
    <mxGraphModel dx="1826" dy="796" grid="1" gridSize="10" guides="1" tooltips="1" connect="1" arrows="1" fold="1" page="1" pageScale="1" pageWidth="850" pageHeight="1100" math="0" shadow="0">
      <root>
        <mxCell id="0" />
        <mxCell id="1" parent="0" />
        <mxCell id="q_evUdxcSX7wJStd2-a_-82" value="" style="rounded=1;whiteSpace=wrap;html=1;labelBackgroundColor=#FF9999;fillColor=#f8cecc;strokeColor=#b85450;" parent="1" vertex="1">
          <mxGeometry x="490" y="30" width="750" height="600" as="geometry" />
        </mxCell>
        <mxCell id="q_evUdxcSX7wJStd2-a_-81" value="" style="rounded=1;whiteSpace=wrap;html=1;labelBackgroundColor=#FF9999;fillColor=#dae8fc;strokeColor=#6c8ebf;" parent="1" vertex="1">
          <mxGeometry x="-400" y="30" width="760" height="600" as="geometry" />
        </mxCell>
        <mxCell id="q_evUdxcSX7wJStd2-a_-83" style="edgeStyle=orthogonalEdgeStyle;rounded=0;orthogonalLoop=1;jettySize=auto;html=1;exitX=0;exitY=0.5;exitDx=0;exitDy=0;exitPerimeter=0;endArrow=none;endFill=0;" parent="1" source="q_evUdxcSX7wJStd2-a_-2" edge="1">
          <mxGeometry relative="1" as="geometry">
            <mxPoint x="-188" y="363.66666666666674" as="targetPoint" />
            <Array as="points">
              <mxPoint x="-188" y="365" />
            </Array>
          </mxGeometry>
        </mxCell>
        <mxCell id="q_evUdxcSX7wJStd2-a_-98" style="edgeStyle=orthogonalEdgeStyle;rounded=0;orthogonalLoop=1;jettySize=auto;html=1;exitX=1;exitY=0.5;exitDx=0;exitDy=0;exitPerimeter=0;endArrow=none;endFill=0;" parent="1" source="q_evUdxcSX7wJStd2-a_-2" edge="1">
          <mxGeometry relative="1" as="geometry">
            <mxPoint x="1040" y="365" as="targetPoint" />
          </mxGeometry>
        </mxCell>
        <mxCell id="q_evUdxcSX7wJStd2-a_-10" style="edgeStyle=orthogonalEdgeStyle;rounded=0;orthogonalLoop=1;jettySize=auto;html=1;exitX=0.5;exitY=0;exitDx=0;exitDy=0;exitPerimeter=0;entryX=0.5;entryY=1;entryDx=0;entryDy=0;entryPerimeter=0;endArrow=none;endFill=0;labelBorderColor=#B3B3B3;" parent="1" source="q_evUdxcSX7wJStd2-a_-4" target="q_evUdxcSX7wJStd2-a_-2" edge="1">
          <mxGeometry relative="1" as="geometry" />
        </mxCell>
        <mxCell id="q_evUdxcSX7wJStd2-a_-4" value="USG-Pro&lt;br&gt;&amp;nbsp;192.168.0.1/24&amp;nbsp;" style="sketch=0;points=[[0.5,0,0],[1,0.5,0],[0.5,1,0],[0,0.5,0],[0.145,0.145,0],[0.8555,0.145,0],[0.855,0.8555,0],[0.145,0.855,0]];verticalLabelPosition=bottom;html=1;verticalAlign=top;aspect=fixed;align=center;pointerEvents=1;shape=mxgraph.cisco19.rect;prIcon=router;fillColor=#FAFAFA;strokeColor=#005073;labelBorderColor=#B3B3B3;" parent="1" vertex="1">
          <mxGeometry x="400" y="460" width="50" height="50" as="geometry" />
        </mxCell>
        <mxCell id="q_evUdxcSX7wJStd2-a_-8" value="DRUNKENBEAR" style="shape=image;html=1;verticalAlign=top;verticalLabelPosition=bottom;labelBackgroundColor=none;imageAspect=0;aspect=fixed;image=https://cdn0.iconfinder.com/data/icons/195-flat-flag-psd-icons/70/Russia.png;fontSize=18;" parent="1" vertex="1">
          <mxGeometry x="-55" y="60" width="70" height="70" as="geometry" />
        </mxCell>
        <mxCell id="q_evUdxcSX7wJStd2-a_-9" value="CRIMSONDRAGON" style="shape=image;html=1;verticalAlign=top;verticalLabelPosition=bottom;labelBackgroundColor=none;imageAspect=0;aspect=fixed;image=https://cdn0.iconfinder.com/data/icons/195-flat-flag-psd-icons/70/China.png;fontSize=18;" parent="1" vertex="1">
          <mxGeometry x="830" y="70" width="70" height="70" as="geometry" />
        </mxCell>
        <mxCell id="q_evUdxcSX7wJStd2-a_-27" value="VLAN 12&lt;br&gt;&amp;nbsp;185.179.199.206/24&amp;nbsp;" style="shape=image;html=1;verticalAlign=bottom;verticalLabelPosition=top;labelBackgroundColor=#99CCFF;imageAspect=0;aspect=fixed;image=https://cdn4.iconfinder.com/data/icons/logos-and-brands-1/512/272_Raspberry_Pi_logo-128.png;spacing=2;labelBorderColor=#007FFF;labelPosition=center;align=center;" parent="1" vertex="1">
          <mxGeometry x="30" y="240" width="50" height="50" as="geometry" />
        </mxCell>
        <mxCell id="q_evUdxcSX7wJStd2-a_-54" value="VLAN 13&lt;br&gt;&amp;nbsp;95.181.162.219/24&amp;nbsp;" style="shape=image;html=1;verticalAlign=bottom;verticalLabelPosition=top;labelBackgroundColor=#99CCFF;imageAspect=0;aspect=fixed;image=https://cdn4.iconfinder.com/data/icons/logos-and-brands-1/512/272_Raspberry_Pi_logo-128.png;spacing=2;labelBorderColor=#007FFF;labelPosition=center;align=center;" parent="1" vertex="1">
          <mxGeometry x="150" y="240" width="50" height="50" as="geometry" />
        </mxCell>
        <mxCell id="q_evUdxcSX7wJStd2-a_-55" value="VLAN 14&lt;br&gt;&amp;nbsp;80.76.63.173/24&amp;nbsp;" style="shape=image;html=1;verticalAlign=bottom;verticalLabelPosition=top;labelBackgroundColor=#99CCFF;imageAspect=0;aspect=fixed;image=https://cdn4.iconfinder.com/data/icons/logos-and-brands-1/512/272_Raspberry_Pi_logo-128.png;spacing=2;labelBorderColor=#007FFF;labelPosition=center;align=center;" parent="1" vertex="1">
          <mxGeometry x="270" y="240" width="50" height="50" as="geometry" />
        </mxCell>
        <mxCell id="q_evUdxcSX7wJStd2-a_-56" value="&amp;nbsp;VLAN 11&amp;nbsp;&lt;br&gt;&amp;nbsp;193.242.109.86/24&amp;nbsp;" style="shape=image;html=1;verticalAlign=bottom;verticalLabelPosition=top;labelBackgroundColor=#99CCFF;imageAspect=0;aspect=fixed;image=https://cdn4.iconfinder.com/data/icons/logos-and-brands-1/512/272_Raspberry_Pi_logo-128.png;spacing=2;labelBorderColor=#007FFF;labelPosition=center;align=center;" parent="1" vertex="1">
          <mxGeometry x="-90" y="240" width="50" height="50" as="geometry" />
        </mxCell>
        <mxCell id="q_evUdxcSX7wJStd2-a_-57" value="&amp;nbsp;VLAN 10&amp;nbsp;&lt;br&gt;&amp;nbsp;89.191.233.89/24&amp;nbsp;" style="shape=image;html=1;verticalAlign=bottom;verticalLabelPosition=top;labelBackgroundColor=#99CCFF;imageAspect=0;aspect=fixed;image=https://cdn4.iconfinder.com/data/icons/logos-and-brands-1/512/272_Raspberry_Pi_logo-128.png;spacing=2;labelBorderColor=#007FFF;labelPosition=center;align=center;" parent="1" vertex="1">
          <mxGeometry x="-210" y="240" width="50" height="50" as="geometry" />
        </mxCell>
        <mxCell id="q_evUdxcSX7wJStd2-a_-88" style="edgeStyle=orthogonalEdgeStyle;rounded=0;orthogonalLoop=1;jettySize=auto;html=1;endArrow=none;endFill=0;" parent="1" source="q_evUdxcSX7wJStd2-a_-58" target="q_evUdxcSX7wJStd2-a_-27" edge="1">
          <mxGeometry relative="1" as="geometry" />
        </mxCell>
        <mxCell id="q_evUdxcSX7wJStd2-a_-58" value="VLAN 17&lt;br&gt;&amp;nbsp;91.107.126.61/24&amp;nbsp;" style="shape=image;html=1;verticalAlign=top;verticalLabelPosition=bottom;labelBackgroundColor=#99CCFF;imageAspect=0;aspect=fixed;image=https://cdn4.iconfinder.com/data/icons/logos-and-brands-1/512/272_Raspberry_Pi_logo-128.png;spacing=2;labelBorderColor=#007FFF;" parent="1" vertex="1">
          <mxGeometry x="30" y="440" width="50" height="50" as="geometry" />
        </mxCell>
        <mxCell id="q_evUdxcSX7wJStd2-a_-89" style="edgeStyle=orthogonalEdgeStyle;rounded=0;orthogonalLoop=1;jettySize=auto;html=1;exitX=0.5;exitY=0;exitDx=0;exitDy=0;endArrow=none;endFill=0;" parent="1" source="q_evUdxcSX7wJStd2-a_-59" target="q_evUdxcSX7wJStd2-a_-54" edge="1">
          <mxGeometry relative="1" as="geometry" />
        </mxCell>
        <mxCell id="q_evUdxcSX7wJStd2-a_-59" value="VLAN 18&lt;br&gt;&amp;nbsp;90.156.231.97/24&amp;nbsp;" style="shape=image;html=1;verticalAlign=top;verticalLabelPosition=bottom;labelBackgroundColor=#99CCFF;imageAspect=0;aspect=fixed;image=https://cdn4.iconfinder.com/data/icons/logos-and-brands-1/512/272_Raspberry_Pi_logo-128.png;spacing=2;labelBorderColor=#007FFF;" parent="1" vertex="1">
          <mxGeometry x="150" y="440" width="50" height="50" as="geometry" />
        </mxCell>
        <mxCell id="q_evUdxcSX7wJStd2-a_-91" style="edgeStyle=orthogonalEdgeStyle;rounded=0;orthogonalLoop=1;jettySize=auto;html=1;exitX=0.5;exitY=0;exitDx=0;exitDy=0;endArrow=none;endFill=0;" parent="1" source="q_evUdxcSX7wJStd2-a_-60" target="q_evUdxcSX7wJStd2-a_-55" edge="1">
          <mxGeometry relative="1" as="geometry" />
        </mxCell>
        <mxCell id="q_evUdxcSX7wJStd2-a_-60" value="VLAN 19&lt;br&gt;&amp;nbsp;212.107.24.203/24" style="shape=image;html=1;verticalAlign=top;verticalLabelPosition=bottom;labelBackgroundColor=#99CCFF;imageAspect=0;aspect=fixed;image=https://cdn4.iconfinder.com/data/icons/logos-and-brands-1/512/272_Raspberry_Pi_logo-128.png;spacing=2;labelBorderColor=#007FFF;" parent="1" vertex="1">
          <mxGeometry x="270" y="440" width="50" height="50" as="geometry" />
        </mxCell>
        <mxCell id="q_evUdxcSX7wJStd2-a_-87" style="edgeStyle=orthogonalEdgeStyle;rounded=0;orthogonalLoop=1;jettySize=auto;html=1;endArrow=none;endFill=0;" parent="1" source="q_evUdxcSX7wJStd2-a_-61" target="q_evUdxcSX7wJStd2-a_-56" edge="1">
          <mxGeometry relative="1" as="geometry" />
        </mxCell>
        <mxCell id="q_evUdxcSX7wJStd2-a_-61" value="VLAN 16&lt;br&gt;&amp;nbsp;88.221.215.127/24&amp;nbsp;" style="shape=image;html=1;verticalAlign=top;verticalLabelPosition=bottom;labelBackgroundColor=#99CCFF;imageAspect=0;aspect=fixed;image=https://cdn4.iconfinder.com/data/icons/logos-and-brands-1/512/272_Raspberry_Pi_logo-128.png;spacing=2;labelBorderColor=#007FFF;" parent="1" vertex="1">
          <mxGeometry x="-90" y="440" width="50" height="50" as="geometry" />
        </mxCell>
        <mxCell id="q_evUdxcSX7wJStd2-a_-86" style="edgeStyle=orthogonalEdgeStyle;rounded=0;orthogonalLoop=1;jettySize=auto;html=1;endArrow=none;endFill=0;" parent="1" source="q_evUdxcSX7wJStd2-a_-62" target="q_evUdxcSX7wJStd2-a_-57" edge="1">
          <mxGeometry relative="1" as="geometry" />
        </mxCell>
        <mxCell id="q_evUdxcSX7wJStd2-a_-62" value="VLAN 15&lt;br&gt;&amp;nbsp;103.136.43.156/24&amp;nbsp;" style="shape=image;html=1;verticalAlign=top;verticalLabelPosition=bottom;labelBackgroundColor=#99CCFF;imageAspect=0;aspect=fixed;image=https://cdn4.iconfinder.com/data/icons/logos-and-brands-1/512/272_Raspberry_Pi_logo-128.png;spacing=2;labelBorderColor=#007FFF;" parent="1" vertex="1">
          <mxGeometry x="-210" y="440" width="50" height="50" as="geometry" />
        </mxCell>
        <mxCell id="q_evUdxcSX7wJStd2-a_-71" value="VLAN 22&lt;br&gt;&amp;nbsp;66.160.195.6/24&amp;nbsp;" style="shape=image;html=1;verticalAlign=bottom;verticalLabelPosition=top;labelBackgroundColor=#FF9999;imageAspect=0;aspect=fixed;image=https://cdn4.iconfinder.com/data/icons/logos-and-brands-1/512/272_Raspberry_Pi_logo-128.png;spacing=2;labelBorderColor=#990000;labelPosition=center;align=center;" parent="1" vertex="1">
          <mxGeometry x="770" y="240" width="50" height="50" as="geometry" />
        </mxCell>
        <mxCell id="q_evUdxcSX7wJStd2-a_-72" value="VLAN 23&lt;br&gt;&amp;nbsp;45.148.127.240/24&amp;nbsp;" style="shape=image;html=1;verticalAlign=bottom;verticalLabelPosition=top;labelBackgroundColor=#FF9999;imageAspect=0;aspect=fixed;image=https://cdn4.iconfinder.com/data/icons/logos-and-brands-1/512/272_Raspberry_Pi_logo-128.png;spacing=2;labelBorderColor=#990000;labelPosition=center;align=center;" parent="1" vertex="1">
          <mxGeometry x="890" y="240" width="50" height="50" as="geometry" />
        </mxCell>
        <mxCell id="q_evUdxcSX7wJStd2-a_-73" value="VLAN 24&lt;br&gt;&amp;nbsp;1.1.0.48/24&amp;nbsp;" style="shape=image;html=1;verticalAlign=bottom;verticalLabelPosition=top;labelBackgroundColor=#FF9999;imageAspect=0;aspect=fixed;image=https://cdn4.iconfinder.com/data/icons/logos-and-brands-1/512/272_Raspberry_Pi_logo-128.png;spacing=2;labelBorderColor=#990000;labelPosition=center;align=center;" parent="1" vertex="1">
          <mxGeometry x="1010" y="240" width="50" height="50" as="geometry" />
        </mxCell>
        <mxCell id="q_evUdxcSX7wJStd2-a_-74" value="VLAN 21&lt;br&gt;&amp;nbsp;103.101.153.41/24&amp;nbsp;" style="shape=image;html=1;verticalAlign=bottom;verticalLabelPosition=top;labelBackgroundColor=#FF9999;imageAspect=0;aspect=fixed;image=https://cdn4.iconfinder.com/data/icons/logos-and-brands-1/512/272_Raspberry_Pi_logo-128.png;spacing=2;labelBorderColor=#990000;labelPosition=center;align=center;" parent="1" vertex="1">
          <mxGeometry x="650" y="240" width="50" height="50" as="geometry" />
        </mxCell>
        <mxCell id="q_evUdxcSX7wJStd2-a_-75" value="VLAN 20&lt;br&gt;&amp;nbsp;185.109.16.35/24&amp;nbsp;" style="shape=image;html=1;verticalAlign=bottom;verticalLabelPosition=top;labelBackgroundColor=#FF9999;imageAspect=0;aspect=fixed;image=https://cdn4.iconfinder.com/data/icons/logos-and-brands-1/512/272_Raspberry_Pi_logo-128.png;spacing=2;labelBorderColor=#990000;labelPosition=center;align=center;" parent="1" vertex="1">
          <mxGeometry x="530" y="240" width="50" height="50" as="geometry" />
        </mxCell>
        <mxCell id="q_evUdxcSX7wJStd2-a_-95" style="edgeStyle=orthogonalEdgeStyle;rounded=0;orthogonalLoop=1;jettySize=auto;html=1;exitX=0.5;exitY=0;exitDx=0;exitDy=0;endArrow=none;endFill=0;" parent="1" source="q_evUdxcSX7wJStd2-a_-76" target="q_evUdxcSX7wJStd2-a_-71" edge="1">
          <mxGeometry relative="1" as="geometry" />
        </mxCell>
        <mxCell id="q_evUdxcSX7wJStd2-a_-76" value="VLAN 27&lt;br&gt;&amp;nbsp;202.12.72.213/24&amp;nbsp;" style="shape=image;html=1;verticalAlign=top;verticalLabelPosition=bottom;labelBackgroundColor=#FF9999;imageAspect=0;aspect=fixed;image=https://cdn4.iconfinder.com/data/icons/logos-and-brands-1/512/272_Raspberry_Pi_logo-128.png;spacing=2;labelBorderColor=#990000;" parent="1" vertex="1">
          <mxGeometry x="770" y="440" width="50" height="50" as="geometry" />
        </mxCell>
        <mxCell id="q_evUdxcSX7wJStd2-a_-96" style="edgeStyle=orthogonalEdgeStyle;rounded=0;orthogonalLoop=1;jettySize=auto;html=1;exitX=0.5;exitY=0;exitDx=0;exitDy=0;endArrow=none;endFill=0;" parent="1" source="q_evUdxcSX7wJStd2-a_-77" target="q_evUdxcSX7wJStd2-a_-72" edge="1">
          <mxGeometry relative="1" as="geometry" />
        </mxCell>
        <mxCell id="q_evUdxcSX7wJStd2-a_-77" value="VLAN 28&lt;br&gt;&amp;nbsp;154.201.26.147/24&amp;nbsp;" style="shape=image;html=1;verticalAlign=top;verticalLabelPosition=bottom;labelBackgroundColor=#FF9999;imageAspect=0;aspect=fixed;image=https://cdn4.iconfinder.com/data/icons/logos-and-brands-1/512/272_Raspberry_Pi_logo-128.png;spacing=2;labelBorderColor=#990000;" parent="1" vertex="1">
          <mxGeometry x="890" y="440" width="50" height="50" as="geometry" />
        </mxCell>
        <mxCell id="q_evUdxcSX7wJStd2-a_-97" style="edgeStyle=orthogonalEdgeStyle;rounded=0;orthogonalLoop=1;jettySize=auto;html=1;exitX=0.5;exitY=0;exitDx=0;exitDy=0;endArrow=none;endFill=0;" parent="1" source="q_evUdxcSX7wJStd2-a_-78" target="q_evUdxcSX7wJStd2-a_-73" edge="1">
          <mxGeometry relative="1" as="geometry" />
        </mxCell>
        <mxCell id="q_evUdxcSX7wJStd2-a_-78" value="VLAN 29&lt;br&gt;&amp;nbsp;107.160.68.118/24&amp;nbsp;" style="shape=image;html=1;verticalAlign=top;verticalLabelPosition=bottom;labelBackgroundColor=#FF9999;imageAspect=0;aspect=fixed;image=https://cdn4.iconfinder.com/data/icons/logos-and-brands-1/512/272_Raspberry_Pi_logo-128.png;spacing=2;labelBorderColor=#990000;" parent="1" vertex="1">
          <mxGeometry x="1010" y="440" width="50" height="50" as="geometry" />
        </mxCell>
        <mxCell id="q_evUdxcSX7wJStd2-a_-94" style="edgeStyle=orthogonalEdgeStyle;rounded=0;orthogonalLoop=1;jettySize=auto;html=1;exitX=0.5;exitY=0;exitDx=0;exitDy=0;endArrow=none;endFill=0;" parent="1" source="q_evUdxcSX7wJStd2-a_-79" target="q_evUdxcSX7wJStd2-a_-74" edge="1">
          <mxGeometry relative="1" as="geometry" />
        </mxCell>
        <mxCell id="q_evUdxcSX7wJStd2-a_-79" value="VLAN 26&lt;br&gt;&amp;nbsp;17.81.131.207/24&amp;nbsp;" style="shape=image;html=1;verticalAlign=top;verticalLabelPosition=bottom;labelBackgroundColor=#FF9999;imageAspect=0;aspect=fixed;image=https://cdn4.iconfinder.com/data/icons/logos-and-brands-1/512/272_Raspberry_Pi_logo-128.png;spacing=2;labelBorderColor=#990000;" parent="1" vertex="1">
          <mxGeometry x="650" y="440" width="50" height="50" as="geometry" />
        </mxCell>
        <mxCell id="q_evUdxcSX7wJStd2-a_-93" style="edgeStyle=orthogonalEdgeStyle;rounded=0;orthogonalLoop=1;jettySize=auto;html=1;exitX=0.5;exitY=0;exitDx=0;exitDy=0;endArrow=none;endFill=0;" parent="1" source="q_evUdxcSX7wJStd2-a_-80" target="q_evUdxcSX7wJStd2-a_-75" edge="1">
          <mxGeometry relative="1" as="geometry" />
        </mxCell>
        <mxCell id="q_evUdxcSX7wJStd2-a_-80" value="VLAN 25&lt;br&gt;&amp;nbsp;140.242.216.29/24&amp;nbsp;" style="shape=image;html=1;verticalAlign=top;verticalLabelPosition=bottom;labelBackgroundColor=#FF9999;imageAspect=0;aspect=fixed;image=https://cdn4.iconfinder.com/data/icons/logos-and-brands-1/512/272_Raspberry_Pi_logo-128.png;spacing=2;labelBorderColor=#990000;" parent="1" vertex="1">
          <mxGeometry x="530" y="440" width="50" height="50" as="geometry" />
        </mxCell>
        <mxCell id="q_evUdxcSX7wJStd2-a_-99" value="" style="edgeStyle=orthogonalEdgeStyle;rounded=0;orthogonalLoop=1;jettySize=auto;html=1;endArrow=none;endFill=0;labelBorderColor=#B3B3B3;" parent="1" source="q_evUdxcSX7wJStd2-a_-2" target="q_evUdxcSX7wJStd2-a_-6" edge="1">
          <mxGeometry relative="1" as="geometry" />
        </mxCell>
        <mxCell id="q_evUdxcSX7wJStd2-a_-2" value="USW-48-POE&lt;br&gt;&amp;nbsp;192.168.0.2/24&amp;nbsp;" style="sketch=0;points=[[0.015,0.015,0],[0.985,0.015,0],[0.985,0.985,0],[0.015,0.985,0],[0.25,0,0],[0.5,0,0],[0.75,0,0],[1,0.25,0],[1,0.5,0],[1,0.75,0],[0.75,1,0],[0.5,1,0],[0.25,1,0],[0,0.75,0],[0,0.5,0],[0,0.25,0]];verticalLabelPosition=bottom;html=1;verticalAlign=top;aspect=fixed;align=center;pointerEvents=1;shape=mxgraph.cisco19.rect;prIcon=l2_switch;fillColor=#FAFAFA;strokeColor=#005073;labelBackgroundColor=default;labelBorderColor=#B3B3B3;" parent="1" vertex="1">
          <mxGeometry x="400" y="340" width="50" height="50" as="geometry" />
        </mxCell>
        <mxCell id="q_evUdxcSX7wJStd2-a_-101" value="" style="edgeStyle=orthogonalEdgeStyle;rounded=0;orthogonalLoop=1;jettySize=auto;html=1;endArrow=none;endFill=0;" parent="1" source="q_evUdxcSX7wJStd2-a_-6" target="q_evUdxcSX7wJStd2-a_-2" edge="1">
          <mxGeometry relative="1" as="geometry" />
        </mxCell>
        <mxCell id="q_evUdxcSX7wJStd2-a_-6" value="GodPi&lt;br&gt;&amp;nbsp;192.168.0.3/24&amp;nbsp;" style="shape=image;html=1;verticalAlign=top;verticalLabelPosition=bottom;labelBackgroundColor=default;imageAspect=0;aspect=fixed;image=https://cdn4.iconfinder.com/data/icons/logos-and-brands/512/272_Raspberry_Pi_logo-128.png;imageBackground=none;labelBorderColor=#B3B3B3;" parent="1" vertex="1">
          <mxGeometry x="400" y="220" width="50" height="50" as="geometry" />
        </mxCell>
        <mxCell id="q_evUdxcSX7wJStd2-a_-100" value="Management VLAN - 100" style="rounded=1;whiteSpace=wrap;html=1;labelBackgroundColor=default;" parent="1" vertex="1">
          <mxGeometry x="342.5" y="630" width="165" height="40" as="geometry" />
        </mxCell>
        <mxCell id="clDLqyeVBwX-vvXjCgIN-2" value="BLUE_WEP&lt;br&gt;VLAN 10&lt;br&gt;&amp;nbsp;192.168.0.4/24&amp;nbsp;" style="points=[[0.03,0.36,0],[0.18,0,0],[0.5,0.34,0],[0.82,0,0],[0.97,0.36,0],[1,0.67,0],[0.975,0.975,0],[0.5,1,0],[0.025,0.975,0],[0,0.67,0]];verticalLabelPosition=top;sketch=0;html=1;verticalAlign=bottom;aspect=fixed;align=center;pointerEvents=1;shape=mxgraph.cisco19.wireless_access_point;labelPosition=center;labelBackgroundColor=#99CCFF;labelBorderColor=#007FFF;fillColor=#0050ef;strokeColor=#001DBC;fontColor=#000000;" vertex="1" parent="1">
          <mxGeometry x="-330" y="240" width="50" height="50" as="geometry" />
        </mxCell>
        <mxCell id="clDLqyeVBwX-vvXjCgIN-3" value="BLUE_WPA&lt;br&gt;VLAN 15&lt;br&gt;&amp;nbsp;192.168.0.5/24&amp;nbsp;" style="points=[[0.03,0.36,0],[0.18,0,0],[0.5,0.34,0],[0.82,0,0],[0.97,0.36,0],[1,0.67,0],[0.975,0.975,0],[0.5,1,0],[0.025,0.975,0],[0,0.67,0]];verticalLabelPosition=bottom;sketch=0;html=1;verticalAlign=top;aspect=fixed;align=center;pointerEvents=1;shape=mxgraph.cisco19.wireless_access_point;fillColor=#0050ef;strokeColor=#001DBC;labelBackgroundColor=#99CCFF;labelBorderColor=#007FFF;fontColor=#000000;" vertex="1" parent="1">
          <mxGeometry x="-330" y="430" width="50" height="50" as="geometry" />
        </mxCell>
        <mxCell id="clDLqyeVBwX-vvXjCgIN-4" value="RED_WEP&lt;br&gt;VLAN 20&lt;br&gt;192.168.0.6/28" style="points=[[0.03,0.36,0],[0.18,0,0],[0.5,0.34,0],[0.82,0,0],[0.97,0.36,0],[1,0.67,0],[0.975,0.975,0],[0.5,1,0],[0.025,0.975,0],[0,0.67,0]];verticalLabelPosition=top;sketch=0;html=1;verticalAlign=bottom;aspect=fixed;align=center;pointerEvents=1;shape=mxgraph.cisco19.wireless_access_point;fillColor=#a20025;strokeColor=#6F0000;fontColor=#000000;labelPosition=center;labelBackgroundColor=#FF9999;labelBorderColor=#990000;" vertex="1" parent="1">
          <mxGeometry x="1130" y="240" width="50" height="50" as="geometry" />
        </mxCell>
        <mxCell id="clDLqyeVBwX-vvXjCgIN-5" value="RED_WPA&lt;br&gt;VLAN 25&lt;br&gt;192.168.0.7/28" style="points=[[0.03,0.36,0],[0.18,0,0],[0.5,0.34,0],[0.82,0,0],[0.97,0.36,0],[1,0.67,0],[0.975,0.975,0],[0.5,1,0],[0.025,0.975,0],[0,0.67,0]];verticalLabelPosition=bottom;sketch=0;html=1;verticalAlign=top;aspect=fixed;align=center;pointerEvents=1;shape=mxgraph.cisco19.wireless_access_point;fillColor=#a20025;strokeColor=#6F0000;fontColor=#000000;labelBackgroundColor=#FF9999;labelBorderColor=#990000;" vertex="1" parent="1">
          <mxGeometry x="1130" y="440" width="50" height="50" as="geometry" />
        </mxCell>
      </root>
    </mxGraphModel>
  </diagram>
</mxfile>
